<svg width="16" height="16" viewBox="0 0 16 16" fill="none" xmlns="http://www.w3.org/2000/svg">
<g clip-path="url(#clip0_329_1625)">
<path fill-rule="evenodd" clip-rule="evenodd" d="M8 0C6.41775 0 4.87103 0.469215 3.55544 1.34826C2.23985 2.22731 1.21447 3.47672 0.608968 4.93853C0.0034672 6.40033 -0.154961 8.00886 0.153721 9.56071C0.462403 11.1126 1.22433 12.538 2.34315 13.6568C3.46197 14.7757 4.88743 15.5376 6.43928 15.8463C7.99113 16.155 9.59966 15.9965 11.0615 15.391C12.5233 14.7855 13.7727 13.7601 14.6518 12.4445C15.5308 11.1289 16 9.58226 16 8.00001C16 5.8783 15.1571 3.84346 13.6568 2.34318C12.1565 0.842899 10.1217 3.57327e-05 8 0ZM12.215 8.12449C11.7218 9.10441 10.86 9.91134 10.1054 10.7431C9.5035 11.4061 8.81192 11.9868 8.12827 12.6346C7.10025 11.6981 6.10563 10.8211 5.14511 9.9085C4.2079 9.01844 3.55336 7.98786 3.64956 6.61155C3.75883 5.05308 5.22945 3.87431 6.75384 4.16157C7.54514 4.31072 7.93695 4.69226 7.60671 5.56763C7.43156 6.03206 7.27904 6.55388 7.32027 7.03273C7.34823 7.17901 7.41687 7.31446 7.51833 7.42348C7.53867 7.44638 8.04096 7.99745 8.59903 7.42348C8.68972 7.33407 8.75565 7.22263 8.79036 7.1001C8.87443 6.67461 8.73754 6.18041 8.60752 5.74131C8.28106 4.63649 8.64498 4.11602 9.79467 4.11831C11.8363 4.12195 13.1765 6.21369 12.2149 8.1257" fill="#F7AF35"/>
</g>
<defs>
<clipPath id="clip0_329_1625">
<rect width="16" height="16" fill="white"/>
</clipPath>
</defs>
</svg>
